<?xml version="1.0" encoding="UTF-8"?>
<svg version="1.1" xmlns="http://www.w3.org/2000/svg" width="400" height="400">
<path d="M0 0 C0.59683594 0.47824219 1.19367188 0.95648438 1.80859375 1.44921875 C4.12744827 3.09019067 6.14085298 3.5760775 8.859375 4.2734375 C14.53838713 6.20098541 20.64475775 8.96713663 24 14 C24.14576166 16.63281994 24.1459674 19.06694243 24 21.6875 C23.9594751 22.45755371 23.9189502 23.22760742 23.87719727 24.02099609 C23.06006824 34.94110413 19.93168664 45.49088687 17 56 C18.09441406 56.12503906 19.18882812 56.25007813 20.31640625 56.37890625 C24.39391671 57.06641862 26.10738341 58.10738341 29 61 C29 61.66 29 62.32 29 63 C22.84615385 67.06153846 22.84615385 67.06153846 18.5625 66.75 C17.2940625 66.37875 17.2940625 66.37875 16 66 C16.06767578 67.47533203 16.06767578 67.47533203 16.13671875 68.98046875 C16.13122606 73.34276063 15.0986779 77.16985537 13.8125 81.3125 C13.51762695 82.38467773 13.51762695 82.38467773 13.21679688 83.47851562 C12.20167445 86.7924999 11.56776416 88.64969679 8.5625 90.50390625 C5.18281042 91.15820591 2.35487195 90.65781803 -1 90 C-1.226875 90.78375 -1.45375 91.5675 -1.6875 92.375 C-3 95 -3 95 -5.4375 96.4375 C-6.283125 96.623125 -7.12875 96.80875 -8 97 C-8.99 96.34 -9.98 95.68 -11 95 C-11.51171875 91.91796875 -11.51171875 91.91796875 -11.6875 88.1875 C-11.75324219 86.96417969 -11.81898437 85.74085938 -11.88671875 84.48046875 C-11.95508362 82.3800169 -11.97295823 80.27588147 -11.89453125 78.17578125 C-11.76610469 75.7858677 -11.76610469 75.7858677 -14 74 C-12.35 72.68 -10.7 71.36 -9 70 C-9.54527344 70.13277344 -10.09054688 70.26554687 -10.65234375 70.40234375 C-14.73328768 71.35805199 -18.5585946 72.05980177 -22.75 72.25 C-26.11700196 72.57906127 -27.70350254 73.18188562 -29.9375 75.75 C-32.0331536 78.78808543 -32.0331536 78.78808543 -32.9375 81.625 C-34.47254815 85.0562841 -36.80795677 86.12232751 -40 88 C-40.804375 88.53625 -41.60875 89.0725 -42.4375 89.625 C-45 91 -45 91 -48.25 91.8125 C-53.14482734 93.36252866 -56.86345644 96.01718628 -61 99 C-62.91796875 98.203125 -62.91796875 98.203125 -65 97 C-66.87779429 92.35022365 -67.71161372 88.75448254 -66 84 C-63.51441665 80.81845332 -60.81796149 77.888571 -58 75 C-59.051875 75.103125 -60.10375 75.20625 -61.1875 75.3125 C-65 75 -65 75 -67.9375 72.5 C-68.9584375 71.2625 -68.9584375 71.2625 -70 70 C-69.0625 67.625 -69.0625 67.625 -67 65 C-64.79704505 64.24369611 -62.64624469 63.85725683 -60.3515625 63.46484375 C-56.96168668 62.79475202 -54.13379267 61.44154463 -51 60 C-49.515 59.505 -49.515 59.505 -48 59 C-46.62322215 57.13692349 -46.62322215 57.13692349 -45.4375 54.9375 C-44.18359375 52.71484375 -44.18359375 52.71484375 -43 51 C-42.34 51 -41.68 51 -41 51 C-40.75121094 50.29746094 -40.50242187 49.59492188 -40.24609375 48.87109375 C-36.52366993 40.29434921 -29.79179595 32.59805242 -24.0625 25.25 C-23.59013916 24.64164307 -23.11777832 24.03328613 -22.63110352 23.40649414 C-19.24670229 19.12335115 -19.24670229 19.12335115 -17 18 C-17.165 18.78375 -17.33 19.5675 -17.5 20.375 C-18.0623707 22.88208039 -18.0623707 22.88208039 -18 25 C-17.401875 24.154375 -16.80375 23.30875 -16.1875 22.4375 C-15.85105469 21.96183594 -15.51460937 21.48617187 -15.16796875 20.99609375 C-13.84010323 18.84858566 -13.84010323 18.84858566 -12.71875 15.6875 C-11.00064369 11.57699732 -8.38963349 8.72698437 -5.3125 5.5625 C-4.80138672 5.02173828 -4.29027344 4.48097656 -3.76367188 3.92382812 C-2.51755796 2.60783867 -1.25995799 1.30274095 0 0 Z M-4 33 C-5.02063433 34.36580512 -5.99118716 35.7691876 -6.9375 37.1875 C-7.46214844 37.96480469 -7.98679687 38.74210937 -8.52734375 39.54296875 C-10.06815016 41.95967544 -10.06815016 41.95967544 -11.03125 44.6328125 C-12.34183276 47.8352849 -14.51369195 49.64119493 -17 52 C-17.33 52.66 -17.66 53.32 -18 54 C-17.67 54.99 -17.34 55.98 -17 57 C-14.03 57 -11.06 57 -8 57 C-6.68485224 53.62993386 -5.99741274 51.14488673 -6.0625 47.5 C-5.99127901 43.51162476 -4.82072247 41.48971806 -3 38 C-2.74715633 35.24853726 -2.74715633 35.24853726 -3 33 C-3.33 33 -3.66 33 -4 33 Z M-36 47 C-37.32 48.65 -38.64 50.3 -40 52 C-39.67 52.66 -39.34 53.32 -39 54 C-37.68 52.35 -36.36 50.7 -35 49 C-35.33 48.34 -35.66 47.68 -36 47 Z " fill="#FFFFFF" transform="translate(112,133)"/>
<path d="M0 0 C1.12801025 0.03077637 2.25602051 0.06155273 3.41821289 0.09326172 C5.00557251 0.15151123 5.00557251 0.15151123 6.625 0.2109375 C8.03652344 0.25806885 8.03652344 0.25806885 9.4765625 0.30615234 C12.09706528 0.63726463 13.77618796 1.21805983 16 2.625 C17.19117971 5.09244369 17.02348697 6.48743349 16.5625 9.1875 C14.18812995 12.89151728 11.14088095 13.55638556 7 14.625 C-0.92916479 16.32410674 -8.98078512 15.2575837 -17 14.625 C-16.75378906 15.14578125 -16.50757813 15.6665625 -16.25390625 16.203125 C-15.86173515 19.94383393 -17.9459746 22.37948246 -19.9375 25.375 C-20.32357422 25.97699219 -20.70964844 26.57898438 -21.10742188 27.19921875 C-22.06045415 28.68171339 -23.02878012 30.15435633 -24 31.625 C-22.81857422 31.49931641 -22.81857422 31.49931641 -21.61328125 31.37109375 C-1.23819408 29.46620394 -1.23819408 29.46620394 5 33.625 C3.71186658 34.46378455 2.41936744 35.29586783 1.125 36.125 C0.40570313 36.5890625 -0.31359375 37.053125 -1.0546875 37.53125 C-3 38.625 -3 38.625 -5 38.625 C-5 39.945 -5 41.265 -5 42.625 C-8.71878239 44.34603359 -11.48134741 44.82631471 -15.5625 44.6875 C-21.76465356 44.57193192 -27.83155257 45.01253004 -34 45.625 C-34.1546875 47.23375 -34.1546875 47.23375 -34.3125 48.875 C-34.9927102 52.58523744 -35.6889903 53.82452712 -38 56.625 C-29.82172495 57.13145281 -22.03792223 56.01593122 -13.99511719 54.69213867 C-9.95554156 54.0331036 -6.11094196 53.42199052 -2 53.625 C-1.01 55.605 -1.01 55.605 0 57.625 C-4.65499974 58.43962495 -9.30976546 59.05893721 -14 59.625 C-11.03 59.955 -8.06 60.285 -5 60.625 C-5.31857625 64.34172297 -6.33680306 66.88819333 -9.06225586 69.49487305 C-13.66203588 72.17754682 -19.49283297 72.01645574 -24.6875 72.4375 C-26.53118164 72.61829102 -26.53118164 72.61829102 -28.41210938 72.80273438 C-34.58337441 73.37871911 -40.67363143 73.71996715 -46.87036133 73.63549805 C-49.76623766 73.62122283 -52.6178562 73.8575846 -55.5 74.125 C-61.01789893 74.58973407 -66.46541072 74.73744087 -72 74.625 C-72 73.965 -72 73.305 -72 72.625 C-72.99 71.965 -73.98 71.305 -75 70.625 C-74.35341074 67.13341798 -73.03960471 64.5275144 -71 61.625 C-69.515 61.13 -69.515 61.13 -68 60.625 C-67.95875 59.635 -67.9175 58.645 -67.875 57.625 C-67.29894586 53.30459393 -65.04086759 50.8462367 -62.359375 47.5390625 C-60.53883765 44.9756622 -60.27523629 42.72140822 -60 39.625 C-59.25 36.875 -59.25 36.875 -58 34.625 C-56.33333333 33.95833333 -54.66666667 33.29166667 -53 32.625 C-51.75285597 30.21547977 -51.75285597 30.21547977 -51 27.625 C-50.34 26.635 -49.68 25.645 -49 24.625 C-49.66 23.635 -50.32 22.645 -51 21.625 C-48.61426621 19.73286631 -46.92824652 18.60108217 -44 17.625 C-42.79117904 15.62483534 -42.79117904 15.62483534 -42 13.625 C-42.89203125 13.58761719 -43.7840625 13.55023438 -44.703125 13.51171875 C-45.87359375 13.44597656 -47.0440625 13.38023437 -48.25 13.3125 C-49.99023438 13.22548828 -49.99023438 13.22548828 -51.765625 13.13671875 C-55.11750442 12.60640932 -56.62438236 12.00649788 -59 9.625 C-59 8.965 -59 8.305 -59 7.625 C-55.95786733 6.10393366 -52.71952428 6.25070662 -49.375 6.0625 C-48.66859375 6.01931641 -47.9621875 5.97613281 -47.234375 5.93164062 C-45.48981463 5.82555249 -43.74493303 5.72477111 -42 5.625 C-43.299375 5.50125 -44.59875 5.3775 -45.9375 5.25 C-48.15234375 5.0390625 -48.15234375 5.0390625 -50 4.625 C-50.33 3.965 -50.66 3.305 -51 2.625 C-35.9440339 -3.47877004 -15.86035892 -0.50910066 0 0 Z " fill="#FFFFFF" transform="translate(334,145.375)"/>
<path d="M0 0 C1.05822464 -0.00315216 2.11644928 -0.00630432 3.20674133 -0.009552 C4.91461067 -0.00651566 4.91461067 -0.00651566 6.65698242 -0.00341797 C8.4214698 -0.00485306 8.4214698 -0.00485306 10.22160339 -0.00631714 C12.71056166 -0.00699764 15.19952171 -0.00515239 17.68847656 -0.00097656 C21.48726423 0.00435915 25.28593288 -0.00091859 29.0847168 -0.00732422 C31.50463893 -0.00666313 33.92456099 -0.00538134 36.34448242 -0.00341797 C38.04324272 -0.00645432 38.04324272 -0.00645432 39.77632141 -0.009552 C54.44780112 0.03376324 54.44780112 0.03376324 57.69995117 2.87939453 C58.99685735 5.79743343 58.73710796 7.13632106 57.69995117 10.12939453 C55.62573242 11.17626953 55.62573242 11.17626953 53.01245117 11.87939453 C47.75946741 13.73825841 45.54108882 16.08703136 42.71948242 20.82080078 C41.48805528 23.28544627 41.48805528 23.28544627 41.32495117 26.87939453 C40.69995117 30.12939453 40.69995117 30.12939453 39.12182617 31.25048828 C38.44635742 31.60240234 37.77088867 31.95431641 37.07495117 32.31689453 C31.09009927 35.49297117 28.6802414 41.28988836 25.69995117 47.12939453 C26.10987305 46.51451172 26.51979492 45.89962891 26.94213867 45.26611328 C29.19474284 41.88720703 31.44734701 38.50830078 33.69995117 35.12939453 C34.35995117 35.12939453 35.01995117 35.12939453 35.69995117 35.12939453 C33.24246626 44.0657033 27.44817234 51.04154555 21.69995117 58.12939453 C20.9600293 59.12197266 20.22010742 60.11455078 19.45776367 61.13720703 C16.53492793 64.62144782 13.13756064 66.44440478 9.07495117 68.37939453 C8.01642944 68.89469727 8.01642944 68.89469727 6.93652344 69.42041016 C1.30525141 72.05896819 -4.0699692 73.65979054 -10.30004883 74.12939453 C-11.57879883 74.23251953 -12.85754883 74.33564453 -14.17504883 74.44189453 C-17.7643471 74.0829647 -19.36491567 73.18398774 -22.30004883 71.12939453 C-24.03254883 70.26314453 -24.03254883 70.26314453 -25.80004883 69.37939453 C-31.02397173 66.38616638 -33.94538325 61.91119867 -35.61254883 56.19189453 C-35.83942383 55.18126953 -36.06629883 54.17064453 -36.30004883 53.12939453 C-34.50133448 51.14134183 -33.10659428 50.03266726 -30.67504883 48.81689453 C-27.97307591 47.28238326 -27.97307591 47.28238326 -27.48754883 43.94189453 C-27.39473633 42.54970703 -27.39473633 42.54970703 -27.30004883 41.12939453 C-24.98754883 41.37939453 -24.98754883 41.37939453 -22.30004883 42.12939453 C-21.25889042 43.43084255 -20.26118749 44.76778143 -19.30004883 46.12939453 C-18.06254883 46.81001953 -18.06254883 46.81001953 -16.80004883 47.50439453 C-13.6323963 49.56336867 -12.93662078 51.78509534 -11.30004883 55.12939453 C-9.2770269 56.32628891 -9.2770269 56.32628891 -7.30004883 57.12939453 C0.69706959 50.83621262 0.69706959 50.83621262 4.13745117 41.56689453 C4.85320224 37.19286026 6.53939678 36.14294639 9.69995117 33.12939453 C11.23706205 30.55640458 12.45945482 27.8554853 13.69995117 25.12939453 C14.37851579 23.66688216 15.06580445 22.20838068 15.76245117 20.75439453 C16.06280273 20.10728516 16.3631543 19.46017578 16.67260742 18.79345703 C17.69995117 17.12939453 17.69995117 17.12939453 20.69995117 15.12939453 C20.00514648 15.20158203 19.3103418 15.27376953 18.59448242 15.34814453 C11.30552427 16.01329661 4.07929862 16.23911263 -3.23754883 16.25439453 C-4.13691162 16.25890625 -5.03627441 16.26341797 -5.96289062 16.26806641 C-10.52255779 16.25784771 -14.81388884 16.06062379 -19.30004883 15.12939453 C-17.55004883 11.25439453 -17.55004883 11.25439453 -15.30004883 10.12939453 C-13.30453101 9.77020132 -11.30456003 9.43442885 -9.30004883 9.12939453 C-11.61004883 9.12939453 -13.92004883 9.12939453 -16.30004883 9.12939453 C-14.94387102 5.0608611 -12.69757656 3.66088579 -9.30004883 1.12939453 C-6.18704849 0.06223852 -3.27490408 0.00280369 0 0 Z " fill="#FFFFFF" transform="translate(180.300048828125,145.87060546875)"/>
<path d="M0 0 C2.125 2.1875 2.125 2.1875 4.125 5.1875 C3.81182903 9.00695774 2.58336812 11.28850853 0.3125 14.3125 C-1.92559557 17.53009151 -3.42830085 20.39748254 -4.625 24.125 C-6.70823731 30.42812828 -9.97053165 35.95809053 -13.34667969 41.64233398 C-16.15749232 46.47908732 -17.68191197 50.72502834 -18.875 56.1875 C-23.04555756 64.36820905 -30.59279229 67.36201336 -38.875 70.1875 C-40.54405395 70.84816719 -42.2119416 71.51188252 -43.875 72.1875 C-46.40088702 69.82457344 -47.76320837 68.52287489 -48.875 65.1875 C-47.79273233 59.23502781 -45.61822046 53.9643889 -43.2421875 48.41796875 C-40.56995339 42.1038613 -37.89953218 35.70401655 -35.98046875 29.1171875 C-34.74503306 25.84306465 -33.06752059 23.90319035 -30.875 21.1875 C-28.93236574 17.67869004 -27.20684961 14.05158929 -25.49414062 10.42578125 C-22.90147152 5.25873348 -20.09423984 1.83881872 -14.875 -0.8125 C-9.59875068 -2.43938168 -4.72028446 -2.97583151 0 0 Z M-19.875 7.1875 C-20.205 8.5075 -20.535 9.8275 -20.875 11.1875 C-20.215 9.8675 -19.555 8.5475 -18.875 7.1875 C-19.205 7.1875 -19.535 7.1875 -19.875 7.1875 Z M-21.875 11.1875 C-21.875 14.1875 -21.875 14.1875 -21.875 14.1875 Z M-23.875 14.1875 C-25.75043354 18.05513446 -25.75043354 18.05513446 -24.875 22.1875 C-22.99956646 18.31986554 -22.99956646 18.31986554 -23.875 14.1875 Z " fill="#FFFFFF" transform="translate(268.875,146.8125)"/>
<path d="M0 0 C1.98 0.495 1.98 0.495 4 1 C4 1.99 4 2.98 4 4 C3.01 4.33 2.02 4.66 1 5 C0.34 4.67 -0.32 4.34 -1 4 C-0.67 2.68 -0.34 1.36 0 0 Z " fill="#FFFFFF" transform="translate(117,225)"/>
<path d="M0 0 C1.32 0.33 2.64 0.66 4 1 C2.6875 2.5 2.6875 2.5 1 4 C0.01 4 -0.98 4 -2 4 C-1.34 2.68 -0.68 1.36 0 0 Z " fill="#FFFFFF" transform="translate(147,191)"/>
<path d="M0 0 C-1.485 1.485 -1.485 1.485 -3 3 C-3.99 2.67 -4.98 2.34 -6 2 C-6 1.34 -6 0.68 -6 0 C-3.50907189 -1.24546405 -2.58919267 -0.7767578 0 0 Z " fill="#FFFFFF" transform="translate(165,150)"/>
<path d="M0 0 C0.99 0 1.98 0 3 0 C2.67 0.99 2.34 1.98 2 3 C1.01 3 0.02 3 -1 3 C-0.67 2.01 -0.34 1.02 0 0 Z " fill="#FFFFFF" transform="translate(333,183)"/>
<path d="M0 0 C0.99 0.33 1.98 0.66 3 1 C2.67 1.99 2.34 2.98 2 4 C1.01 3.67 0.02 3.34 -1 3 C-0.67 2.01 -0.34 1.02 0 0 Z " fill="#FFFFFF" transform="translate(94,145)"/>
<path d="M0 0 C0.99 0 1.98 0 3 0 C2.67 0.99 2.34 1.98 2 3 C1.34 3 0.68 3 0 3 C0 2.01 0 1.02 0 0 Z " fill="#FFFFFF" transform="translate(41,227)"/>
<path d="M0 0 C1.98 0.495 1.98 0.495 4 1 C2.35 1.33 0.7 1.66 -1 2 C-0.67 1.34 -0.34 0.68 0 0 Z " fill="#FFFFFF" transform="translate(332,205)"/>
<path d="M0 0 C1.98 0.495 1.98 0.495 4 1 C2.35 1.33 0.7 1.66 -1 2 C-0.67 1.34 -0.34 0.68 0 0 Z " fill="#FFFFFF" transform="translate(277,149)"/>
<path d="M0 0 C0.99 0.33 1.98 0.66 3 1 C2.01 1.33 1.02 1.66 0 2 C0 1.34 0 0.68 0 0 Z " fill="#FFFFFF" transform="translate(154,217)"/>
</svg>
